<svg id="Layer_1" enable-background="new 0 0 512 512" height="512" viewBox="0 0 512 512" width="512" xmlns="http://www.w3.org/2000/svg"><path d="m269.676 27.55c-9.959 0-19.205 3.035-26.863 8.222 2.773 7.613 4.213 16.379 4.213 26.214v14.09c41.375 9.204 70.475 33.612 70.475 79.918v-80.806c0-26.31-21.412-47.638-47.825-47.638z" fill="#3d5959"/><path d="m203.246 71.689c15.894 0 31.028 1.455 44.78 4.611v-14.313c0-39.306-22.605-61.987-62.066-61.987h-25.518c-39.461 0-71.45 31.864-71.45 71.17v84.825c0-61.398 51.152-84.306 114.254-84.306z" fill="#537982"/><path d="m121.046 91.759v-20.589c0-38.309 30.391-69.535 68.468-71.095-1.17-.045-2.351-.075-3.554-.075h-25.518c-39.461 0-71.45 31.864-71.45 71.17v84.825c0-29.993 12.211-50.797 32.054-64.236z" fill="#3d5959"/><path d="m279.008 414.928c0-24.781 9.47-47.4 24.993-64.458h-48.243v1c-3.412 25.824-25.788 45.162-52.511 45.162s-49.1-19.338-52.513-45.162v-1h-77.858c-27.887 0-50.577 22.135-50.577 49.34v72.939c0 3.619 2.979 6.554 6.654 6.554h274.973c-15.478-17.048-24.918-39.634-24.918-64.375z" fill="#0592fb"/><path d="m65.416 472.749v-72.939c0-27.205 22.69-49.34 50.577-49.34h-43.117c-27.887 0-50.577 22.135-50.577 49.34v72.939c0 3.619 2.979 6.554 6.654 6.554h43.117c-3.675 0-6.654-2.936-6.654-6.554z" fill="#0181fb"/><path d="m235.168 316.234c-6.033 1.114-12.253 1.704-18.612 1.704h-26.621c-6.359 0-12.578-.59-18.61-1.704v34.235h-21.72c2.924 26.517 25.819 47.162 53.641 47.162 27.821 0 50.717-20.645 53.64-47.162h-21.718z" fill="#ffaf9d"/><path d="m189.935 317.939c-6.359 0-12.578-.59-18.61-1.704v34.235h-21.72c1.346 12.207 6.932 23.162 15.274 31.439h22.847c5.689 0 10.302-4.612 10.302-10.302v-53.668z" fill="#f69380"/><path d="m89.992 220.331v-50.708h-16.573c-11.594 0-20.998 9.088-20.998 20.299v24.574c0 11.211 9.404 20.299 20.998 20.299h17.671c-.72-4.722-1.098-9.55-1.098-14.464z" fill="#ffcdbe"/><path d="m333.076 169.623h-16.575v50.708c0 4.913-.378 9.742-1.099 14.463h17.674c11.598 0 20.994-9.088 20.994-20.299v-24.574c0-11.21-9.396-20.298-20.994-20.298z" fill="#ffaf9d"/><path d="m203.246 70.628c-63.103 0-114.254 22.907-114.254 84.306v65.398c0 54.458 45.194 98.607 100.943 98.607h26.621c55.751 0 100.945-44.15 100.945-98.607v-65.398c0-61.399-51.153-84.306-114.255-84.306z" fill="#ffcdbe"/><path d="m203.246 70.628c-63.103 0-114.254 22.907-114.254 84.306v65.398c0 54.458 45.194 98.607 100.943 98.607h26.621c55.751 0 100.945-44.15 100.945-98.607v-65.398c0-61.399-51.153-84.306-114.255-84.306z" fill="#ffcdbe"/><path d="m121.046 220.331v-65.398c0-56.104 42.714-80.065 98.227-83.781-5.238-.35-10.586-.525-16.027-.525-63.103 0-114.254 22.907-114.254 84.306v65.398c0 54.458 45.194 98.607 100.943 98.607h26.621c.909 0 1.814-.013 2.717-.036-54.493-1.407-98.227-45.001-98.227-98.571z" fill="#ffaf9d"/><g fill="#ab5e2e"><path d="m213.744 224.455h-13.805c-7.684 0-13.935-6.181-13.935-13.778v-31.966c0-4.142 3.358-7.5 7.5-7.5s7.5 3.358 7.5 7.5v30.744h12.74c4.142 0 7.5 3.358 7.5 7.5s-3.357 7.5-7.5 7.5z"/><path d="m142.041 194.748c-4.142 0-7.5-3.358-7.5-7.5v-22.695c0-4.142 3.358-7.5 7.5-7.5s7.5 3.358 7.5 7.5v22.695c0 4.142-3.358 7.5-7.5 7.5z"/><path d="m264.451 194.748c-4.143 0-7.5-3.358-7.5-7.5v-22.695c0-4.142 3.357-7.5 7.5-7.5s7.5 3.358 7.5 7.5v22.695c0 4.142-3.357 7.5-7.5 7.5z"/></g><ellipse cx="375.461" cy="414.928" fill="#00c184" rx="97.453" ry="97.072"/><path d="m310.398 414.928c0-48.114 35.146-88.045 81.258-95.729-5.268-.878-10.678-1.342-16.195-1.342-53.821 0-97.453 43.461-97.453 97.072 0 53.61 43.632 97.072 97.453 97.072 5.518 0 10.928-.464 16.195-1.342-46.112-7.685-81.258-47.618-81.258-95.731z" fill="#07b17b"/><path d="m203.246 280.702c-19.852 0-37.999-11.647-46.233-29.672-1.721-3.768-.062-8.217 3.706-9.939 3.769-1.719 8.217-.061 9.938 3.706 5.801 12.699 18.593 20.905 32.589 20.905 13.997 0 26.788-8.205 32.587-20.904 1.721-3.768 6.17-5.427 9.938-3.707 3.768 1.721 5.427 6.17 3.707 9.938-8.232 18.026-26.379 29.673-46.232 29.673z" fill="#ab5e2e"/><path d="m375.626 465.84c-5.203-.01-10.189-2.225-13.686-6.077l-51.082-56.253c-.552-.607-.839-1.407-.799-2.226.04-.818.402-1.588 1.01-2.139l22.879-20.776c.592-.537 1.336-.802 2.077-.802.841 0 1.68.341 2.29 1.013l35.889 39.522c.389.427.943.674 1.521.675.579 0 1.135-.244 1.523-.67l84.285-92.08c.553-.605 1.324-.965 2.143-1.001.047-.003.091-.003.137-.003.771 0 1.516.288 2.087.811l22.797 20.867c1.26 1.152 1.346 3.107.193 4.366l-99.546 108.751c-3.503 3.828-8.488 6.023-13.678 6.023h-.04z" fill="#c7eefd"/></svg>